<svg width="48" height="48" viewBox="0 0 48 48" fill="none" xmlns="http://www.w3.org/2000/svg">
<g clip-path="url(#clip0_2179_324)">
<circle cx="24" cy="24" r="24" fill="#EEECEC"/>
<circle cx="24" cy="24" r="24" fill="url(#paint0_linear_2179_324)"/>
<path d="M23.9695 11.848V2.20708V2.19336L19.1332 6.99762L18.2096 7.92397L8.04331 18.0128C7.32588 18.7245 7.31806 19.8851 8.02474 20.6066L14.7719 27.4949L23.9695 36.8985V36.8848V28.5683C23.9695 27.689 23.6284 26.844 23.0185 26.2127L18.9074 21.9564C17.5371 20.538 17.5557 18.2794 18.9475 16.8836L23.9686 11.848H23.9695Z" fill="white"/>
<path d="M24.9587 22.5138C24.3253 21.8786 23.9695 21.0179 23.9695 20.12V11.8809V11.8672L28.8059 16.6714L29.7295 17.5978L39.8958 27.6866C40.6132 28.3983 40.621 29.5589 39.9143 30.2804L33.1672 37.1687L23.9695 46.5724V46.5586V36.8707L29.0316 31.6302C30.402 30.2118 30.3834 27.9533 28.9916 26.5574L24.9587 22.5128V22.5138Z" fill="white"/>
</g>
<defs>
<linearGradient id="paint0_linear_2179_324" x1="48" y1="48" x2="0.0671628" y2="36.8319" gradientUnits="userSpaceOnUse">
<stop stop-color="#017BFF"/>
<stop offset="1" stop-color="#5524E1"/>
</linearGradient>
<clipPath id="clip0_2179_324">
<rect width="48" height="48" fill="white"/>
</clipPath>
</defs>
</svg>
