<svg width="500" height="500" viewBox="0 0 500 500" fill="none" xmlns="http://www.w3.org/2000/svg">
<circle cx="250" cy="250" r="250" fill="white"/>
<path d="M250.058 499.966C113.947 502.264 -0.546041 386.222 0.00195907 248.906C0.539959 114.375 113.995 -0.535598 250.965 0.0018779C385.945 0.531347 500.94 114.011 499.994 252.004C499.068 387.169 385.952 502.041 250.058 499.966ZM306.202 346.98C306.202 361.063 306.153 375.147 306.223 389.229C306.257 396.083 308.311 398.282 314.962 398.299C342.738 398.371 370.514 398.372 398.29 398.299C405.043 398.282 407.722 395.649 407.738 389.038C407.807 361.421 407.808 333.803 407.74 306.186C407.723 299.153 405.123 296.685 398.044 296.677C370.451 296.644 342.857 296.644 315.264 296.676C308.044 296.684 306.257 298.466 306.218 305.827C306.144 319.545 306.196 333.263 306.202 346.98ZM200.717 347.25C200.717 333.352 200.759 319.454 200.7 305.556C200.668 297.994 199.307 296.68 191.617 296.672C164.394 296.646 137.17 296.646 109.947 296.674C101.716 296.683 99.97 298.395 99.958 306.67C99.915 333.917 99.919 361.166 99.96 388.413C99.972 396.243 101.897 398.282 109.618 398.302C137.024 398.374 164.43 398.37 191.836 398.3C198.805 398.282 200.669 396.359 200.699 389.492C200.762 375.412 200.718 361.332 200.717 347.25ZM253.483 294.292C267.736 294.292 281.989 294.351 296.241 294.265C302.427 294.228 303.817 292.897 303.83 286.887C303.889 258.357 303.892 229.825 303.818 201.294C303.803 195.52 301.904 193.573 296.278 193.559C267.955 193.488 239.632 193.485 211.309 193.561C205.013 193.578 203.134 195.554 203.124 201.847C203.077 230.011 203.081 258.176 203.122 286.342C203.132 293.022 204.398 294.248 211.273 294.279C225.342 294.342 239.413 294.298 253.483 294.292ZM356.74 191.079C370.803 191.079 384.867 191.125 398.93 191.059C405.776 191.027 407.731 189.104 407.746 182.189C407.806 154.769 407.803 127.349 407.749 99.9283C407.735 92.9692 405.833 91.0515 398.962 91.0384C370.653 90.9874 342.344 90.9874 314.035 91.0425C307.579 91.0555 306.229 92.4027 306.219 98.7503C306.171 126.719 306.169 154.688 306.219 182.657C306.232 189.719 307.571 191.038 314.552 191.067C328.613 191.126 342.677 191.084 356.74 191.079ZM150.631 191.083C164.695 191.083 178.76 191.131 192.824 191.062C199.369 191.029 200.68 189.794 200.693 183.404C200.752 155.25 200.748 127.096 200.697 98.9424C200.685 92.2735 199.398 91.0454 192.516 91.0344C164.57 90.9904 136.624 90.9854 108.677 91.0384C101.733 91.0515 99.969 92.8721 99.958 99.9223C99.914 127.528 99.918 155.133 99.956 182.739C99.965 189.573 101.41 191.018 108.437 191.058C122.502 191.139 136.567 191.082 150.631 191.083Z" fill="black"/>
</svg>
